<svg width="243" height="86" viewBox="0 0 243 86" fill="none" xmlns="http://www.w3.org/2000/svg">
<mask id="mask0_4_746" style="mask-type:luminance" maskUnits="userSpaceOnUse" x="0" y="0" width="81" height="81">
<path d="M0 0H80.6053V80.1878H0V0Z" fill="white"/>
</mask>
<g mask="url(#mask0_4_746)">
<path d="M40.3027 0C18.0417 0 0 17.9518 0 40.0939C0 62.236 18.0417 80.1878 40.3027 80.1878C62.5601 80.1878 80.6053 62.236 80.6053 40.0939C80.6053 17.9518 62.5601 0 40.3027 0Z" fill="#FFEA53"/>
</g>
<path d="M54.2128 20.7743C54.2128 19.1977 55.5002 17.91 57.0851 17.91C58.6699 17.91 59.9573 19.1977 59.9573 20.7743C59.9573 22.344 58.6699 23.6352 57.0851 23.6352C55.5002 23.6352 54.2128 22.344 54.2128 20.7743ZM52.1592 20.7743C52.1592 23.4751 54.3632 25.6677 57.0851 25.6677C59.7999 25.6677 62.0109 23.4751 62.0109 20.7743C62.0109 18.0666 59.7999 15.874 57.0851 15.874C54.3632 15.874 52.1592 18.0666 52.1592 20.7743Z" fill="black"/>
<path d="M19.5672 45.5268C19.5672 43.7692 21.0085 42.3353 22.7753 42.3353C24.542 42.3353 25.9834 43.7692 25.9834 45.5268C25.9834 47.2948 24.542 48.7252 22.7753 48.7252C21.0085 48.7252 19.5672 47.2948 19.5672 45.5268ZM17.5135 45.5268C17.5135 48.4155 19.8715 50.7613 22.7753 50.7613C25.672 50.7613 28.0335 48.4155 28.0335 45.5268C28.0335 42.6485 25.672 40.3027 22.7753 40.3027C19.8715 40.3027 17.5135 42.6485 17.5135 45.5268Z" fill="black"/>
<path d="M51.316 70.7073C51.316 68.9427 52.7504 67.5088 54.5241 67.5088C56.2908 67.5088 57.7322 68.9427 57.7322 70.7073C57.7322 72.4648 56.2908 73.8988 54.5241 73.8988C52.7504 73.8988 51.316 72.4648 51.316 70.7073ZM49.2659 70.7073C49.2659 73.589 51.6204 75.9383 54.5241 75.9383C57.4209 75.9383 59.7858 73.589 59.7858 70.7073C59.7858 67.8186 57.4209 65.4728 54.5241 65.4728C51.6204 65.4728 49.2659 67.8186 49.2659 70.7073Z" fill="black"/>
<mask id="mask1_4_746" style="mask-type:luminance" maskUnits="userSpaceOnUse" x="10" y="4" width="82" height="82">
<path d="M10.0513 4.5697H92V86H10.0513V4.5697Z" fill="white"/>
</mask>
<g mask="url(#mask1_4_746)">
<path d="M12.1014 45.2901C12.1014 40.2818 13.0775 35.4163 15.0121 30.7978C16.1037 31.6296 17.5241 32.009 18.9409 31.7758C20.2879 31.56 21.4599 30.843 22.2435 29.7502C22.9992 28.6922 23.3001 27.4114 23.0797 26.1376C22.7753 24.3661 21.5298 22.96 19.8855 22.3683C27.4248 12.4736 39.3477 6.61964 52.1102 6.61964C61.9969 6.61964 71.3659 10.0791 78.6988 16.4099C76.7011 17.3009 75.3087 19.2708 75.3087 21.5191C75.3087 24.6341 77.9221 27.1643 81.1162 27.1643C83.1034 27.1643 84.8911 26.1967 85.9406 24.6619C87.438 26.9555 88.6905 29.3882 89.649 31.922L51.7883 44.319C51.3685 44.4617 51.0816 44.8481 51.0816 45.2901C51.0816 45.7286 51.3685 46.1219 51.7883 46.2576L89.649 58.6651C83.873 73.8396 68.9135 83.9675 52.1102 83.9675C45.2496 83.9675 38.5395 82.2656 32.5816 79.0462C33.7186 78.1413 34.4148 76.7631 34.4148 75.2874C34.4148 72.5832 32.1618 70.387 29.3805 70.387C27.2709 70.387 25.4586 71.6609 24.71 73.4567C16.6704 66.1549 12.1014 55.9853 12.1014 45.2901ZM10.0513 45.2901C10.0513 57.1651 15.397 68.4276 24.724 76.1784C25.0388 76.4394 25.4656 76.4881 25.8295 76.3176C26.1933 76.1436 26.4207 75.7747 26.4067 75.3675C26.4067 75.3327 26.3997 75.2387 26.3892 75.2004C26.3997 73.7038 27.7362 72.4231 29.3805 72.4231C31.0317 72.4231 32.3647 73.7038 32.3647 75.2804C32.3647 76.5473 31.4691 77.6784 30.1886 78.023C29.7898 78.1239 29.4959 78.458 29.4399 78.8652C29.3875 79.269 29.5764 79.6657 29.9262 79.878C36.5839 83.8874 44.2526 86 52.1102 86C70.1449 86 86.1506 74.8906 91.9406 58.3589C92.035 58.0978 92.014 57.8159 91.8916 57.5723C91.7726 57.3252 91.5557 57.1373 91.2933 57.0572L55.3813 45.2901L91.2933 33.5264C91.5557 33.4394 91.7726 33.2515 91.8986 33.0078C92.014 32.7607 92.035 32.4788 91.9406 32.2247C90.6741 28.6052 88.8794 25.1665 86.5879 21.9994C86.3535 21.6792 85.9616 21.5122 85.5593 21.5922C85.1745 21.6723 84.8561 21.9681 84.7617 22.3509C84.3593 23.9867 82.862 25.1317 81.1162 25.1317C79.0416 25.1317 77.3623 23.5099 77.3623 21.5191C77.3623 19.6467 78.9052 18.0666 80.8678 17.9448C81.2667 17.9169 81.6165 17.6559 81.7634 17.2731C81.8999 16.8937 81.7984 16.4691 81.5011 16.1872C73.6015 8.7009 63.1584 4.57666 52.1102 4.57666C38.1337 4.57666 25.1018 11.2799 17.2547 22.4971C17.0343 22.8069 17.0133 23.221 17.1882 23.5551C17.3701 23.8927 17.72 24.0981 18.0978 24.0981C18.1048 24.0981 18.1188 24.0981 18.1188 24.0981C19.5882 24.0981 20.8266 25.1039 21.0645 26.4856C21.1905 27.2165 21.0156 27.9543 20.5782 28.5704C20.1129 29.2142 19.4132 29.6423 18.6121 29.7641C17.3981 29.966 16.2051 29.437 15.5719 28.4311C15.369 28.1144 15.0051 27.9474 14.6343 27.9543C14.2635 27.9822 13.9346 28.2084 13.7772 28.5495C11.3002 33.8396 10.0513 39.4709 10.0513 45.2901Z" fill="black"/>
</g>
<path d="M36.3668 19.5283C36.6921 19.1977 37.1435 19.0167 37.6088 19.0167C38.081 19.0167 38.5254 19.1977 38.8612 19.5283C39.1936 19.8624 39.3755 20.3045 39.3755 20.7743C39.3755 21.2372 39.1936 21.6862 38.8612 22.0203C38.1895 22.6781 37.035 22.685 36.3668 22.0203C35.6741 21.3312 35.6741 20.2174 36.3668 19.5283ZM34.9114 18.0909C33.4245 19.5666 33.4245 21.975 34.9114 23.4612C35.6391 24.1781 36.5907 24.5679 37.6088 24.5679C38.6268 24.5679 39.5889 24.1781 40.3096 23.4612C41.0303 22.7372 41.4291 21.7871 41.4291 20.7743C41.4291 19.7615 41.0303 18.8044 40.3096 18.0909C38.8682 16.657 36.3563 16.657 34.9114 18.0909Z" fill="black"/>
<path d="M36.3668 57.6419C36.6921 57.3113 37.1435 57.1303 37.6088 57.1303C38.081 57.1303 38.5254 57.3113 38.8612 57.6419C39.1936 57.976 39.3755 58.418 39.3755 58.8879C39.3755 59.3577 39.1936 59.7998 38.8612 60.1339C38.1895 60.7917 37.035 60.7917 36.3668 60.1339C35.6741 59.4448 35.6741 58.331 36.3668 57.6419ZM34.9114 56.2045C33.4245 57.6802 33.4245 60.0886 34.9114 61.5747C35.6391 62.2882 36.5907 62.6815 37.6088 62.6815C38.6268 62.6815 39.5889 62.2882 40.3096 61.5747C41.0303 60.8578 41.4291 59.9007 41.4291 58.8879C41.4291 57.8751 41.0303 56.918 40.3096 56.2045C38.8682 54.7706 36.3563 54.7706 34.9114 56.2045Z" fill="black"/>
<path d="M69.6726 61.6826C70.3408 61.0214 71.4988 61.0214 72.167 61.6826C72.8597 62.3683 72.8597 63.4855 72.167 64.1711C71.4988 64.8358 70.3408 64.8289 69.6726 64.1711C68.9799 63.4855 68.9799 62.3683 69.6726 61.6826ZM68.2242 60.2418C66.7339 61.7244 66.7339 64.1363 68.2242 65.612C68.9449 66.3289 69.9035 66.7257 70.9216 66.7257C71.9431 66.7257 72.8947 66.3289 73.6224 65.612C75.1058 64.1363 75.1058 61.7244 73.6224 60.2418C72.174 58.8078 69.6656 58.8078 68.2242 60.2418Z" fill="black"/>
<path d="M40.8975 33.0635C41.4083 32.5589 42.0695 32.3048 42.7377 32.3048C43.3989 32.3048 44.0706 32.5589 44.5779 33.0635C45.589 34.0694 45.589 35.7121 44.5779 36.7179C43.5599 37.7342 41.9156 37.7342 40.8975 36.7179C39.8864 35.7121 39.8864 34.0694 40.8975 33.0635ZM39.4491 38.1588C40.3587 39.0637 41.5447 39.5127 42.7377 39.5127C43.9307 39.5127 45.1167 39.0637 46.0263 38.1588C47.8385 36.356 47.8385 33.4255 46.0263 31.6227C44.2141 29.8129 41.2614 29.8129 39.4491 31.6227C37.6369 33.4255 37.6369 36.356 39.4491 38.1588Z" fill="black"/>
<path d="M115.718 35.802C113.234 35.802 111.362 36.585 110.102 38.151C108.86 39.699 108.239 41.706 108.239 44.172C108.239 46.62 108.968 48.699 110.426 50.409C111.884 52.119 113.774 52.974 116.096 52.974C119.282 52.974 121.442 51.597 122.576 48.843L123.359 49.005C123.359 49.203 123.179 49.887 122.819 51.057C122.477 52.209 122.225 52.785 122.063 52.785C120.245 53.811 118.076 54.324 115.556 54.324C112.55 54.324 110.102 53.433 108.212 51.651C106.34 49.869 105.404 47.583 105.404 44.793C105.404 41.625 106.376 39.123 108.32 37.287C110.282 35.433 112.811 34.506 115.907 34.506C117.041 34.506 118.382 34.668 119.93 34.992C121.496 35.298 122.36 35.46 122.522 35.478C122.648 35.748 122.711 36.351 122.711 37.287C122.711 38.223 122.666 39.186 122.576 40.176L121.82 40.095C121.676 39.051 121.379 38.241 120.929 37.665C119.957 36.423 118.22 35.802 115.718 35.802ZM134.529 34.83L137.769 34.749L137.985 35.937C136.977 36.045 136.365 36.153 136.149 36.261C135.933 36.351 135.825 36.594 135.825 36.99V43.524H146.085V36.99C146.085 36.648 145.959 36.405 145.707 36.261C145.473 36.117 144.996 36.009 144.276 35.937L144.033 34.749L147.273 34.83L150.594 34.749L150.81 35.937C149.784 36.045 149.145 36.153 148.893 36.261C148.659 36.351 148.542 36.594 148.542 36.99V51.84C148.542 52.2 148.659 52.452 148.893 52.596C149.145 52.722 149.64 52.821 150.378 52.893L150.621 54.081L147.435 54L144.06 54.081L143.844 52.893C145.032 52.749 145.698 52.623 145.842 52.515C146.004 52.389 146.085 52.191 146.085 51.921V45.009H135.825V51.84C135.825 52.2 135.942 52.452 136.176 52.596C136.41 52.722 136.896 52.821 137.634 52.893L137.877 54.081L134.718 54L131.397 54.081L131.181 52.893C132.189 52.785 132.801 52.686 133.017 52.596C133.251 52.488 133.368 52.236 133.368 51.84V36.99C133.368 36.648 133.251 36.405 133.017 36.261C132.801 36.117 132.333 36.009 131.613 35.937L131.37 34.749L134.529 34.83ZM168.012 36.018L164.961 36.045C163.701 36.099 163.071 36.243 163.071 36.477V43.227C163.071 43.407 163.161 43.497 163.341 43.497H167.634C168.066 43.497 168.354 43.299 168.498 42.903C168.66 42.489 168.741 41.733 168.741 40.635L169.632 40.5L169.578 44.091L169.632 47.412L168.741 47.547C168.741 46.485 168.678 45.801 168.552 45.495C168.426 45.189 168.12 45.036 167.634 45.036H163.341C163.161 45.036 163.071 45.117 163.071 45.279V50.949C163.071 51.741 163.233 52.245 163.557 52.461C163.881 52.659 164.592 52.758 165.69 52.758H168.309C169.677 52.758 170.748 52.443 171.522 51.813C172.296 51.165 172.908 50.175 173.358 48.843L174.276 49.005C174.276 49.329 174.042 50.247 173.574 51.759C173.106 53.253 172.773 54 172.575 54L165.69 54.054C165.222 54.054 163.854 54.036 161.586 54L158.589 54.081L158.373 52.893C159.381 52.785 159.993 52.686 160.209 52.596C160.443 52.488 160.578 52.236 160.614 51.84V36.99C160.614 36.612 160.488 36.36 160.236 36.234C159.984 36.108 159.399 36.009 158.481 35.937L158.238 34.749L161.613 34.83H165.96L172.629 34.857C172.755 35.127 172.818 35.73 172.818 36.666C172.818 37.602 172.773 38.565 172.683 39.555L171.819 39.474C171.603 38.196 171.207 37.305 170.631 36.801C170.055 36.279 169.182 36.018 168.012 36.018ZM191.352 36.018L188.301 36.045C187.041 36.099 186.411 36.243 186.411 36.477V43.227C186.411 43.407 186.501 43.497 186.681 43.497H190.974C191.406 43.497 191.694 43.299 191.838 42.903C192 42.489 192.081 41.733 192.081 40.635L192.972 40.5L192.918 44.091L192.972 47.412L192.081 47.547C192.081 46.485 192.018 45.801 191.892 45.495C191.766 45.189 191.46 45.036 190.974 45.036H186.681C186.501 45.036 186.411 45.117 186.411 45.279V50.949C186.411 51.741 186.573 52.245 186.897 52.461C187.221 52.659 187.932 52.758 189.03 52.758H191.649C193.017 52.758 194.088 52.443 194.862 51.813C195.636 51.165 196.248 50.175 196.698 48.843L197.616 49.005C197.616 49.329 197.382 50.247 196.914 51.759C196.446 53.253 196.113 54 195.915 54L189.03 54.054C188.562 54.054 187.194 54.036 184.926 54L181.929 54.081L181.713 52.893C182.721 52.785 183.333 52.686 183.549 52.596C183.783 52.488 183.918 52.236 183.954 51.84V36.99C183.954 36.612 183.828 36.36 183.576 36.234C183.324 36.108 182.739 36.009 181.821 35.937L181.578 34.749L184.953 34.83H189.3L195.969 34.857C196.095 35.127 196.158 35.73 196.158 36.666C196.158 37.602 196.113 38.565 196.023 39.555L195.159 39.474C194.943 38.196 194.547 37.305 193.971 36.801C193.395 36.279 192.522 36.018 191.352 36.018ZM211.424 52.974C212.666 52.974 213.62 52.659 214.286 52.029C214.97 51.399 215.312 50.634 215.312 49.734C215.312 48.834 214.979 48.069 214.313 47.439C213.665 46.791 212.864 46.233 211.91 45.765C210.974 45.297 210.029 44.811 209.075 44.307C208.139 43.803 207.338 43.137 206.672 42.309C206.024 41.463 205.7 40.482 205.7 39.366C205.7 37.764 206.276 36.558 207.428 35.748C208.58 34.92 209.948 34.506 211.532 34.506C213.566 34.506 215.312 34.848 216.77 35.532C216.896 35.802 216.959 36.513 216.959 37.665C216.959 38.799 216.923 39.654 216.851 40.23L216.014 40.176C215.942 38.916 215.501 37.872 214.691 37.044C213.899 36.198 212.819 35.775 211.451 35.775C210.479 35.775 209.678 36.027 209.048 36.531C208.436 37.017 208.13 37.701 208.13 38.583C208.13 39.627 208.769 40.536 210.047 41.31C210.605 41.652 211.226 41.994 211.91 42.336C212.594 42.678 213.278 43.047 213.962 43.443C214.646 43.821 215.267 44.244 215.825 44.712C217.103 45.756 217.742 47.088 217.742 48.708C217.742 50.31 217.184 51.651 216.068 52.731C214.952 53.793 213.476 54.324 211.64 54.324C209.804 54.324 207.896 53.955 205.916 53.217C205.826 52.947 205.7 52.281 205.538 51.219C205.376 50.139 205.259 49.23 205.187 48.492L206.429 48.303C207.149 51.417 208.814 52.974 211.424 52.974ZM235.314 36.018L232.263 36.045C231.003 36.099 230.373 36.243 230.373 36.477V43.227C230.373 43.407 230.463 43.497 230.643 43.497H234.936C235.368 43.497 235.656 43.299 235.8 42.903C235.962 42.489 236.043 41.733 236.043 40.635L236.934 40.5L236.88 44.091L236.934 47.412L236.043 47.547C236.043 46.485 235.98 45.801 235.854 45.495C235.728 45.189 235.422 45.036 234.936 45.036H230.643C230.463 45.036 230.373 45.117 230.373 45.279V50.949C230.373 51.741 230.535 52.245 230.859 52.461C231.183 52.659 231.894 52.758 232.992 52.758H235.611C236.979 52.758 238.05 52.443 238.824 51.813C239.598 51.165 240.21 50.175 240.66 48.843L241.578 49.005C241.578 49.329 241.344 50.247 240.876 51.759C240.408 53.253 240.075 54 239.877 54L232.992 54.054C232.524 54.054 231.156 54.036 228.888 54L225.891 54.081L225.675 52.893C226.683 52.785 227.295 52.686 227.511 52.596C227.745 52.488 227.88 52.236 227.916 51.84V36.99C227.916 36.612 227.79 36.36 227.538 36.234C227.286 36.108 226.701 36.009 225.783 35.937L225.54 34.749L228.915 34.83H233.262L239.931 34.857C240.057 35.127 240.12 35.73 240.12 36.666C240.12 37.602 240.075 38.565 239.985 39.555L239.121 39.474C238.905 38.196 238.509 37.305 237.933 36.801C237.357 36.279 236.484 36.018 235.314 36.018Z" fill="black"/>
</svg>
